<?xml version="1.0" encoding="UTF-8" standalone="no"?>
<!-- Created with Inkscape (http://www.inkscape.org/) -->

<svg
   width="64"
   height="64"
   viewBox="0 0 64 64"
   version="1.1"
   id="svg3054"
   inkscape:version="1.1.2 (0a00cf5339, 2022-02-04)"
   sodipodi:docname="E000-voltage.svg"
   xmlns:inkscape="http://www.inkscape.org/namespaces/inkscape"
   xmlns:sodipodi="http://sodipodi.sourceforge.net/DTD/sodipodi-0.dtd"
   xmlns="http://www.w3.org/2000/svg"
   xmlns:svg="http://www.w3.org/2000/svg">
  <sodipodi:namedview
     id="namedview3056"
     pagecolor="#000000"
     bordercolor="#ffffff"
     borderopacity="1"
     inkscape:pageshadow="0"
     inkscape:pageopacity="0"
     inkscape:pagecheckerboard="true"
     inkscape:document-units="px"
     showgrid="false"
     units="px"
     inkscape:zoom="7.2466938"
     inkscape:cx="42.088159"
     inkscape:cy="27.460799"
     inkscape:window-width="1920"
     inkscape:window-height="1011"
     inkscape:window-x="1920"
     inkscape:window-y="32"
     inkscape:window-maximized="1"
     inkscape:current-layer="layer1" />
  <defs
     id="defs3051" />
  <g
     inkscape:label="Layer 1"
     inkscape:groupmode="layer"
     id="layer1">
    <path
       id="path80673"
       style="display:inline;fill:#1ba3c8;fill-opacity:1;fill-rule:evenodd;stroke:none;stroke-width:117.6;stroke-linecap:round;stroke-miterlimit:4;stroke-dasharray:none;stroke-opacity:1"
       inkscape:transform-center-x="0.096334219"
       inkscape:transform-center-y="-0.32624057"
       d="m 37.923971,9.3730674 c -0.546976,0.014764 -1.023392,0.267552 -1.39648,0.7031266 L 18.41616,30.855489 c -0.259069,0.325221 -0.400301,0.728738 -0.4004,1.144531 -2.21e-4,1.015136 0.822784,1.838112 1.837888,1.837888 h 11.44336 l -7.001962,18.333984 h 0.002 c -0.07104,0.19808 -0.1072,0.406816 -0.10752,0.617184 -2.17e-4,1.015136 0.822752,1.838112 1.837888,1.837888 0.0163,2.17e-4 0.03264,2.17e-4 0.04864,0 0.546976,-0.01476 1.023392,-0.26752 1.39648,-0.703136 L 45.583856,33.144532 c 0.2592,-0.325216 0.400288,-0.728768 0.400384,-1.144544 2.18e-4,-1.015136 -0.822784,-1.838112 -1.837888,-1.837891 H 32.702992 L 39.70495,11.828113 h -0.002 c 0.07104,-0.198048 0.1072,-0.406825 0.10752,-0.617187 2.21e-4,-1.01513 -0.822752,-1.8381056 -1.837888,-1.8378912 -0.0163,-2.16e-4 -0.03264,-2.16e-4 -0.04864,0 z"
       inkscape:label="voltage"
       sodipodi:insensitive="true" />
  </g>
</svg>
