<?xml version="1.0" encoding="UTF-8" standalone="no"?>
<!-- Created with Inkscape (http://www.inkscape.org/) -->

<svg
   width="64"
   height="64"
   viewBox="0 0 64 64"
   version="1.1"
   id="svg3054"
   inkscape:version="1.1.2 (0a00cf5339, 2022-02-04)"
   sodipodi:docname="E010-time.svg"
   xmlns:inkscape="http://www.inkscape.org/namespaces/inkscape"
   xmlns:sodipodi="http://sodipodi.sourceforge.net/DTD/sodipodi-0.dtd"
   xmlns="http://www.w3.org/2000/svg"
   xmlns:svg="http://www.w3.org/2000/svg">
  <sodipodi:namedview
     id="namedview3056"
     pagecolor="#000000"
     bordercolor="#ffffff"
     borderopacity="1"
     inkscape:pageshadow="0"
     inkscape:pageopacity="0"
     inkscape:pagecheckerboard="true"
     inkscape:document-units="px"
     showgrid="false"
     units="px"
     inkscape:zoom="10.248373"
     inkscape:cx="29.663246"
     inkscape:cy="28.589905"
     inkscape:window-width="1920"
     inkscape:window-height="1011"
     inkscape:window-x="1920"
     inkscape:window-y="32"
     inkscape:window-maximized="1"
     inkscape:current-layer="layer1" />
  <defs
     id="defs3051" />
  <g
     inkscape:label="Layer 1"
     inkscape:groupmode="layer"
     id="layer1">
    <g
       id="g2622"
       inkscape:label="dial"
       transform="matrix(32,0,0,32,7.3949274e-5,-64.000496)"
       style="display:inline">
      <path
         style="fill:none;fill-opacity:1;fill-rule:evenodd;stroke:#ffffff;stroke-width:0.166906;stroke-linecap:round;stroke-linejoin:miter;stroke-miterlimit:4;stroke-dasharray:none;stroke-opacity:1"
         d="M 1.1077703,2.8133365 1,3"
         id="path13870"
         sodipodi:nodetypes="cc"
         inkscape:label="dial" />
      <path
         id="path16777"
         style="display:inline;opacity:1;fill:none;fill-opacity:1;fill-rule:evenodd;stroke:#ffffff;stroke-width:0.114844;stroke-linecap:round;stroke-linejoin:miter;stroke-miterlimit:4;stroke-dasharray:none;stroke-opacity:1"
         d="m 0.56298219,3.0000177 0.0497856,-8.9e-6 M 1,3.4370353 l 8.4e-6,-0.049786 m 0.4370091,-0.3872316 -0.049768,-8.9e-6 M 1,2.563 l 8.4e-6,0.049768"
         inkscape:label="segments" />
    </g>
    <path
       id="path15430"
       style="color:#000000;fill:#1ba3c8;fill-rule:evenodd;stroke-width:32;stroke-linecap:round;-inkscape-stroke:none"
       d="M 25.099609,7.5625 A 1.837504,1.837504 0 0 0 23.3125,9.375 a 1.837504,1.837504 0 0 0 1.875,1.8125 h 4.140625 v 1.431641 C 19.809045,13.928335 12.437499,22.130896 12.4375,32 12.437499,42.774851 21.22515,51.5625 32,51.5625 c 10.774851,0 19.5625,-8.787649 19.5625,-19.5625 0,-3.747977 -1.063971,-7.255455 -2.904297,-10.236328 A 1.837504,1.837504 0 0 0 50.625,21.375 a 1.837504,1.837504 0 0 0 0,-2.625 L 45.25,13.375 a 1.837504,1.837504 0 0 0 -2.625,0 1.837504,1.837504 0 0 0 -0.388672,1.966797 C 39.975593,13.945991 37.41169,12.996159 34.669922,12.619141 V 11.1875 H 38.8125 a 1.837504,1.837504 0 0 0 1.875,-1.8125 1.837504,1.837504 0 0 0 -1.875,-1.8125 h -13.625 a 1.837504,1.837504 0 0 0 -0.08789,0 z M 32,17.75 c 7.887814,0 14.25,6.362186 14.25,14.25 0,7.887814 -6.362186,14.25 -14.25,14.25 -7.887813,0 -14.25,-6.362186 -14.25,-14.25 0,-7.887814 6.362187,-14.25 14.25,-14.25 z"
       inkscape:label="body" />
  </g>
</svg>
