<?xml version="1.0" encoding="UTF-8" standalone="no"?>
<!-- Created with Inkscape (http://www.inkscape.org/) -->

<svg
   width="512"
   height="512"
   viewBox="0 0 8 16"
   version="1.1"
   id="svg63863"
   inkscape:version="1.1.2 (0a00cf5339, 2022-02-04)"
   sodipodi:docname="icons.svg"
   inkscape:export-filename="/home/colin/Documents/code/embedded/hardware-calculator/src/icons_64.png"
   inkscape:export-xdpi="96.000008"
   inkscape:export-ydpi="96.000008"
   xmlns:inkscape="http://www.inkscape.org/namespaces/inkscape"
   xmlns:sodipodi="http://sodipodi.sourceforge.net/DTD/sodipodi-0.dtd"
   xmlns:xlink="http://www.w3.org/1999/xlink"
   xmlns="http://www.w3.org/2000/svg"
   xmlns:svg="http://www.w3.org/2000/svg">
  <sodipodi:namedview
     id="namedview63865"
     pagecolor="#474747"
     bordercolor="#ffffff"
     borderopacity="1"
     inkscape:pageshadow="0"
     inkscape:pageopacity="0"
     inkscape:pagecheckerboard="1"
     inkscape:document-units="px"
     showgrid="true"
     units="px"
     width="256px"
     inkscape:snap-bbox="true"
     inkscape:snap-others="false"
     inkscape:snap-intersection-paths="true"
     inkscape:object-paths="true"
     inkscape:snap-grids="false"
     inkscape:snap-to-guides="false"
     inkscape:snap-bbox-edge-midpoints="true"
     inkscape:snap-smooth-nodes="true"
     inkscape:zoom="2"
     inkscape:cx="227.5"
     inkscape:cy="125"
     inkscape:window-width="1920"
     inkscape:window-height="1011"
     inkscape:window-x="1920"
     inkscape:window-y="32"
     inkscape:window-maximized="1"
     inkscape:current-layer="layer1"
     inkscape:snap-midpoints="true"
     inkscape:bbox-nodes="true"
     inkscape:bbox-paths="true"
     inkscape:snap-bbox-midpoints="true"
     inkscape:snap-object-midpoints="false">
    <inkscape:grid
       type="xygrid"
       id="grid63924"
       empcolor="#ff7d7d"
       empopacity="0.36862745"
       empspacing="2"
       spacingx="0.5"
       spacingy="1"
       units="px"
       color="#ffffff"
       opacity="0.14509804" />
  </sodipodi:namedview>
  <defs
     id="defs63860" />
  <g
     inkscape:groupmode="layer"
     id="layer2"
     inkscape:label="Helper"
     sodipodi:insensitive="true"
     style="display:none">
    <g
       id="g64814"
       inkscape:label="guide"
       sodipodi:insensitive="true"
       style="display:inline;opacity:0.182997"
       transform="translate(6,2)">
      <path
         id="path64849"
         style="fill:none;fill-opacity:1;fill-rule:evenodd;stroke:#ffffff;stroke-width:0.03125;stroke-linecap:round;stroke-miterlimit:4;stroke-dasharray:none;stroke-opacity:1"
         d="m -4,0 2,2 m -2,0 2,-2"
         inkscape:label="cross"
         sodipodi:insensitive="true" />
      <rect
         style="fill:none;fill-opacity:1;fill-rule:evenodd;stroke:#ffffff;stroke-width:0.03125;stroke-linecap:butt;stroke-miterlimit:4;stroke-dasharray:none;stroke-opacity:1"
         id="rect65986"
         width="0.54018104"
         height="0.54018104"
         x="-3.2700906"
         y="0.72990626"
         inkscape:label="rect.gold2" />
      <rect
         style="fill:none;fill-opacity:1;fill-rule:evenodd;stroke:#ffffff;stroke-width:0.03125;stroke-linecap:round;stroke-miterlimit:4;stroke-dasharray:none;stroke-opacity:1"
         id="rect65647"
         width="0.87403524"
         height="0.87403524"
         x="-3.4370177"
         y="0.56300002"
         rx="0"
         inkscape:label="rect.gold"
         sodipodi:insensitive="true" />
      <circle
         style="display:inline;fill:none;fill-rule:evenodd;stroke:#ffffff;stroke-width:0.03125;stroke-linecap:round;stroke-miterlimit:4;stroke-dasharray:none"
         id="path64048"
         cx="-3"
         cy="1"
         r="1"
         inkscape:label="circ"
         sodipodi:insensitive="true" />
      <rect
         style="fill:none;fill-opacity:1;fill-rule:evenodd;stroke:#ffffff;stroke-width:0.03125;stroke-linecap:round;stroke-miterlimit:4;stroke-dasharray:none;stroke-opacity:1"
         id="rect64941"
         width="1.4142135"
         height="1.4142135"
         x="-3.7071068"
         y="0.29289323"
         inkscape:label="rect"
         sodipodi:insensitive="true" />
    </g>
  </g>
  <g
     inkscape:label="Layer 1"
     inkscape:groupmode="layer"
     id="layer1">
    <path
       id="path80673"
       style="display:inline;opacity:1;fill:#1ba3c8;fill-opacity:1;fill-rule:evenodd;stroke:none;stroke-width:3.675;stroke-linecap:round;stroke-miterlimit:4;stroke-dasharray:none;stroke-opacity:1"
       inkscape:transform-center-x="0.096334219"
       inkscape:transform-center-y="-0.32624057"
       d="m -2.8148684,0.29290772 c -0.017093,4.6137e-4 -0.031981,0.008361 -0.04364,0.0219727 L -3.4244875,0.96423341 C -3.4325834,0.97439656 -3.4369969,0.98700647 -3.437,1 c -6.9e-6,0.031723 0.025712,0.057441 0.057434,0.057434 h 0.357605 l -0.2188113,0.572937 h 6.25e-5 c -0.00222,0.00619 -0.00335,0.012713 -0.00336,0.019287 -6.8e-6,0.031723 0.025711,0.057441 0.057434,0.057434 5.094e-4,6.8e-6 0.00102,6.8e-6 0.00152,0 0.017093,-4.613e-4 0.031981,-0.00836 0.04364,-0.021973 L -2.575497,1.035766 c 0.0081,-0.010163 0.012509,-0.022774 0.012512,-0.035767 6.8e-6,-0.031723 -0.025712,-0.057441 -0.057434,-0.0574341 h -0.357605 l 0.2188112,-0.572937 h -6.25e-5 c 0.00222,-0.006189 0.00335,-0.0127133 0.00336,-0.0192871 6.9e-6,-0.0317228 -0.025711,-0.0574408 -0.057434,-0.0574341 -5.094e-4,-6.75e-6 -0.00102,-6.75e-6 -0.00152,0 z"
       inkscape:label="voltage"
       sodipodi:insensitive="true" />
    <g
       id="g93971"
       inkscape:label="current"
       sodipodi:insensitive="true"
       style="display:inline">
      <path
         id="path71525"
         style="opacity:1;fill:#1ba3c8;fill-opacity:1;fill-rule:evenodd;stroke:none;stroke-width:3.675;stroke-linecap:round;stroke-miterlimit:4;stroke-dasharray:none;stroke-opacity:1"
         d="M -1,0.56300003 A 0.70709378,0.70710678 0 0 0 -1.4545288,0.72840531 0.70709378,0.70710678 0 0 0 -1.6868286,1.4370235 h 0.1773682 a 0.48859375,0.48859375 0 0 1 -0.030701,-0.1669311 0.48859375,0.48859375 0 0 1 0.4885864,-0.48858653 0.48859375,0.48859375 0 0 1 0.48858658,0.48858653 0.48859375,0.48859375 0 0 1 -0.0305178,0.1669311 h 0.28057875 A 0.70709378,0.70710678 0 0 0 -0.54547125,0.72840531 0.70709378,0.70710678 0 0 0 -1,0.56300003 Z" />
      <path
         id="path77215"
         style="opacity:1;fill:#ffffff;fill-opacity:1;fill-rule:evenodd;stroke-width:0.114844;stroke-linecap:round"
         d="M -0.89910887,0.92658644 -1.1470947,1.1745723 c -0.040147,0.040147 -0.05085,0.1011309 -0.026855,0.1525879 0.023995,0.051456 0.077595,0.082404 0.1341553,0.077454 0.0565599,-0.00495 0.10395731,-0.044767 0.11865234,-0.099609 l 0.0908204,-0.33874519 z" />
    </g>
    <g
       id="g7694"
       inkscape:label="resistor"
       transform="matrix(0.02712974,0,0,0.02712974,-1.7562804,-1.7562776)"
       sodipodi:insensitive="true"
       style="display:inline">
      <path
         style="fill:none;fill-rule:evenodd;stroke:#ffffff;stroke-width:4.23313;stroke-linecap:round;stroke-linejoin:miter;stroke-miterlimit:4;stroke-dasharray:none;stroke-opacity:1"
         d="M 77.649416,125.54407 125.54407,77.649416"
         id="path2866"
         inkscape:label="wire" />
      <path
         id="path2904"
         style="fill:#1ba3c8;fill-opacity:1;fill-rule:evenodd;stroke:none;stroke-width:5.00001;stroke-linecap:butt;stroke-linejoin:miter;stroke-miterlimit:4;stroke-dasharray:none;stroke-opacity:1"
         inkscape:label="body"
         d="m 421.72852,299.99414 c -3.75361,0.002 -7.35935,2.40623 -12.16602,7.21289 -17.05667,17.05665 4.87485,9.74624 -43.86719,58.48828 -48.74204,48.74204 -41.43163,26.81052 -58.48828,43.86719 -12.81777,12.81778 -8.54587,17.09041 12.78375,38.42211 21.3317,21.32961 25.58864,25.62757 38.40641,12.80979 17.06832,-17.06832 -4.86807,-9.76577 43.88168,-58.51553 48.74976,-48.74975 41.43808,-26.82009 58.49471,-43.87676 12.81777,-12.81777 8.54195,-17.08243 -12.78321,-38.42187 -21.32516,-21.33944 -21.58106,-19.83097 -26.2619,-19.98614 z"
         transform="scale(0.26458333)"
         sodipodi:nodetypes="sszscczszcs" />
    </g>
    <g
       id="g938"
       inkscape:label="capacitor"
       transform="matrix(0.02712974,0,0,0.02712974,0.24371061,-1.7562776)"
       sodipodi:insensitive="true">
      <path
         id="path1817"
         style="fill:none;fill-rule:evenodd;stroke:#ffffff;stroke-width:4.23313;stroke-linecap:round;stroke-linejoin:miter;stroke-miterlimit:4;stroke-dasharray:none;stroke-opacity:1"
         inkscape:label="wire"
         d="m 72.671356,120.56602 c 3.296795,-3.2968 6.593591,-6.59359 9.890386,-9.89039 m 0.06573,19.8465 c 3.296795,-3.2968 6.593591,-6.59359 9.890386,-9.89039" />
      <rect
         style="opacity:1;fill:#1ba3c8;fill-opacity:1;fill-rule:evenodd;stroke:none;stroke-width:73.8489;stroke-linecap:round;stroke-linejoin:round"
         id="rect2001"
         width="32.216881"
         height="44.444595"
         x="127.57023"
         y="-23.358582"
         ry="4.3795061"
         transform="rotate(45)"
         inkscape:label="body" />
    </g>
    <g
       id="g94100"
       inkscape:label="inductor"
       transform="matrix(0.02712974,0,0,0.02712974,2.2437196,-1.7562776)"
       sodipodi:insensitive="true"
       style="display:inline">
      <path
         style="fill:none;fill-rule:evenodd;stroke:#ffffff;stroke-width:4.23313;stroke-linecap:round;stroke-linejoin:miter;stroke-miterlimit:4;stroke-dasharray:none;stroke-opacity:1"
         d="m 77.649416,125.54407 c 3.296795,-3.2968 6.593591,-6.59359 9.890386,-9.89039 m 28.106858,-28.10686 9.89741,-9.897414"
         id="path94096"
         inkscape:label="wire"
         sodipodi:nodetypes="cccc" />
      <path
         id="path98942"
         style="opacity:1;fill:none;fill-rule:evenodd;stroke:#1ba3c8;stroke-width:6.00272;stroke-linecap:round;stroke-opacity:1"
         d="m 87.732342,115.83982 c -6.055741,-6.05578 -6.86568,-15.06416 -1.809019,-20.120842 5.056661,-5.056661 14.065078,-4.246723 20.120877,1.809018 5.47621,5.476274 -3.04051,13.993004 -8.516754,8.516784 -6.055777,-6.055799 -6.865715,-15.064211 -1.809019,-20.120871 5.056683,-5.056661 14.065103,-4.246723 20.120843,1.809018"
         sodipodi:nodetypes="csccsc"
         inkscape:label="body" />
    </g>
    <g
       id="g7988"
       inkscape:label="diode"
       transform="matrix(0.02712974,0,0,0.02712974,4.2437182,-1.7562776)"
       sodipodi:insensitive="true">
      <path
         id="path10038"
         style="display:inline;fill:none;fill-rule:evenodd;stroke:#ffffff;stroke-width:4.23313;stroke-linecap:round;stroke-linejoin:miter;stroke-miterlimit:4;stroke-dasharray:none;stroke-opacity:1"
         inkscape:label="mid wire"
         d="m 82.627472,130.52213 c 3.296795,-3.2968 16.299269,-16.30026 19.596058,-19.59706 m -29.552174,9.64094 c 3.296795,-3.2968 16.299265,-16.30026 19.59606,-19.59706" />
      <path
         id="rect7982"
         style="opacity:1;fill:#1ba3c8;fill-opacity:1;fill-rule:evenodd;stroke:none;stroke-width:64.112;stroke-linecap:round;stroke-linejoin:round"
         inkscape:label="body"
         d="m 359.64453,9.4082031 a 13.984563,13.98428 45 0 0 -8.85351,4.0273439 l -0.002,-0.002 -0.0351,0.03516 -8.64258,8.642578 -1.88867,-1.888672 L 336.44531,24 360,47.554688 l 3.77734,-3.777344 -1.88867,-1.888672 8.64258,-8.642578 a 13.984563,13.98428 45 0 0 0.0352,-0.03516 13.984563,13.98428 45 0 0 -0.0352,-19.742188 13.984563,13.98428 45 0 0 -10.88672,-4.0605469 z"
         transform="matrix(1.1518724,0,0,1.1518724,-303.86278,64.736249)" />
    </g>
    <g
       id="g8298"
       inkscape:label="transistor"
       transform="matrix(0.02712974,0,0,0.02712974,6.2437182,-1.7562776)"
       style="display:inline"
       sodipodi:insensitive="true">
      <path
         id="path11331"
         style="display:inline;fill:none;fill-rule:evenodd;stroke:#ffffff;stroke-width:4.23313;stroke-linecap:round;stroke-linejoin:miter;stroke-miterlimit:4;stroke-dasharray:none;stroke-opacity:1"
         inkscape:label="mid wire"
         d="m 82.627472,130.52213 c 3.296795,-3.2968 14.093343,-14.09434 17.390138,-17.39114 m -27.346254,7.43502 c 3.296795,-3.2968 14.093343,-14.09434 17.390138,-17.39114 m -12.412078,22.3692 c 3.296795,-3.2968 14.093343,-14.09434 17.390138,-17.39114" />
      <rect
         style="opacity:1;fill:#1ba3c8;fill-opacity:1;fill-rule:evenodd;stroke:none;stroke-width:73.8489;stroke-linecap:round;stroke-linejoin:round"
         id="rect10707"
         width="32.216728"
         height="32.631142"
         x="127.57023"
         y="-23.358582"
         ry="4.3795061"
         transform="rotate(45)"
         inkscape:label="body" />
    </g>
    <g
       id="g11702"
       inkscape:label="voltage-ripple"
       transform="translate(0,2.0000046)"
       sodipodi:insensitive="true">
      <use
         x="0"
         y="0"
         xlink:href="#path80673"
         inkscape:transform-center-x="0.096334219"
         inkscape:transform-center-y="-0.32624057"
         id="use11699"
         width="100%"
         height="100%"
         inkscape:label="voltage"
         sodipodi:insensitive="true" />
      <path
         id="path12822"
         style="fill:none;fill-opacity:1;fill-rule:evenodd;stroke:#ffffff;stroke-width:0.114844;stroke-linecap:round;stroke-linejoin:round;stroke-miterlimit:4;stroke-dasharray:none;stroke-opacity:1"
         d="m -3.599518,0.63182943 -0.2167511,0.18482822 0.2183246,0.18482815 -0.2183246,0.1848281 0.2183246,0.1848283 m 1.1974622,-0.73931276 0.2167511,0.18482822 -0.2183246,0.18482814 0.2183246,0.1848281 -0.2183246,0.1848283"
         inkscape:label="ripple" />
    </g>
    <g
       id="g12907"
       inkscape:label="current-ripple"
       transform="translate(0,2)"
       sodipodi:insensitive="true">
      <use
         x="0"
         y="0"
         xlink:href="#g93971"
         id="use12904"
         width="100%"
         height="100%"
         inkscape:label="current" />
      <use
         x="0"
         y="0"
         xlink:href="#path12822"
         id="use12934"
         width="100%"
         height="100%"
         inkscape:label="ripple"
         transform="rotate(90,-1.9992556,2.0007413)" />
    </g>
    <g
       id="g28807"
       inkscape:label="time"
       sodipodi:insensitive="true">
      <path
         style="fill:none;fill-opacity:1;fill-rule:evenodd;stroke:#ffffff;stroke-width:0.166906;stroke-linecap:round;stroke-linejoin:miter;stroke-miterlimit:4;stroke-dasharray:none;stroke-opacity:1"
         d="M 1.1077703,2.8133365 1,3"
         id="path13870"
         sodipodi:nodetypes="cc"
         inkscape:label="dial" />
      <path
         style="fill:none;fill-opacity:1;fill-rule:evenodd;stroke:#1ba3c8;stroke-width:0.114844;stroke-linecap:round;stroke-linejoin:miter;stroke-miterlimit:4;stroke-dasharray:none;stroke-opacity:1"
         d="M 0.78658249,2.2928932 H 1.2134173"
         id="path15430"
         sodipodi:nodetypes="cc"
         inkscape:label="top button pad" />
      <rect
         style="fill:#1ba3c8;fill-opacity:1;fill-rule:evenodd;stroke:none;stroke-width:0.114844;stroke-linecap:round;stroke-linejoin:miter;stroke-miterlimit:4;stroke-dasharray:none;stroke-opacity:1"
         id="rect15600"
         width="0.1669271"
         height="0.16690624"
         x="0.91653633"
         y="2.2928932"
         inkscape:label="top button pin" />
      <path
         style="fill:none;fill-opacity:1;fill-rule:evenodd;stroke:#1ba3c8;stroke-width:0.114844;stroke-linecap:round;stroke-linejoin:miter;stroke-miterlimit:4;stroke-dasharray:none;stroke-opacity:1"
         d="M 1.3734872,2.457778 1.5422219,2.6265127"
         id="path16079"
         inkscape:label="side button" />
      <path
         id="path16777"
         style="opacity:1;fill:none;fill-opacity:1;fill-rule:evenodd;stroke:#ffffff;stroke-width:0.114844;stroke-linecap:round;stroke-linejoin:miter;stroke-miterlimit:4;stroke-dasharray:none;stroke-opacity:1"
         d="m 0.56298219,3.0000177 0.0497856,-8.9e-6 M 1,3.4370353 l 8.4e-6,-0.049786 m 0.4370091,-0.3872316 -0.049768,-8.9e-6 M 1,2.563 l 8.4e-6,0.049768"
         inkscape:label="segments" />
      <circle
         style="fill:none;fill-opacity:1;fill-rule:evenodd;stroke:#1ba3c8;stroke-width:0.166938;stroke-linecap:round;stroke-linejoin:round;stroke-miterlimit:4;stroke-dasharray:none;stroke-opacity:1"
         id="path13584"
         cy="3"
         cx="1"
         r="0.52799648"
         inkscape:label="body" />
    </g>
    <path
       style="opacity:1;fill:none;fill-opacity:1;fill-rule:evenodd;stroke:#1ba3c8;stroke-width:0.166906;stroke-linecap:round;stroke-linejoin:round;stroke-miterlimit:4;stroke-dasharray:none;stroke-opacity:1"
       d="M 2.3763463,3.6236537 H 2.8133781 V 2.3763466 l 0.8102754,-1e-7"
       id="path29228"
       inkscape:label="pwm"
       sodipodi:nodetypes="cccc"
       sodipodi:insensitive="true" />
    <g
       id="g71070"
       inkscape:label="unlocked"
       sodipodi:insensitive="true"
       style="display:inline"
       transform="translate(0,1.9999962)">
      <path
         id="path66858"
         style="fill:none;fill-opacity:1;fill-rule:evenodd;stroke:#ffffff;stroke-width:0.114844;stroke-linecap:round;stroke-miterlimit:4;stroke-dasharray:none;stroke-opacity:1"
         d="M -3.2128108,2.896848 -3.2127062,2.563 c 3.68e-5,-0.1175319 0.095174,-0.2127929 0.2127061,-0.2127929 0.1175318,0 0.2128108,0.095279 0.2128108,0.2128107 v 0.1105671"
         sodipodi:nodetypes="csccc"
         inkscape:label="shackle" />
      <rect
         style="fill:#1ba3c8;fill-opacity:1;fill-rule:evenodd;stroke:none;stroke-width:0.0245676;stroke-linecap:butt;stroke-miterlimit:4;stroke-dasharray:none;stroke-opacity:1"
         id="rect66295"
         width="0.87403524"
         height="0.54018748"
         x="-3.4370177"
         y="2.896848"
         ry="0.11484375"
         inkscape:label="body" />
    </g>
    <g
       id="g71076"
       inkscape:label="locked"
       transform="translate(1.9999864,1.9999999)"
       sodipodi:insensitive="true"
       style="display:inline">
      <path
         id="path71072"
         style="fill:none;fill-opacity:1;fill-rule:evenodd;stroke:#ffffff;stroke-width:0.114844;stroke-linecap:round;stroke-miterlimit:4;stroke-dasharray:none;stroke-opacity:1"
         d="m -3.2128108,2.896848 1.046e-4,-0.064133 c 1.917e-4,-0.1175317 0.095174,-0.2127929 0.2127061,-0.2127929 0.1175318,0 0.2128108,0.095279 0.2128108,0.2128107 v 0.064115"
         sodipodi:nodetypes="csccc"
         inkscape:label="shackle" />
      <rect
         style="fill:#1ba3c8;fill-opacity:1;fill-rule:evenodd;stroke:none;stroke-width:0.0245676;stroke-linecap:butt;stroke-miterlimit:4;stroke-dasharray:none;stroke-opacity:1"
         id="rect71074"
         width="0.87403524"
         height="0.54018748"
         x="-3.4370177"
         y="2.896848"
         ry="0.11484375"
         inkscape:label="body" />
    </g>
  </g>
</svg>
